# xmcd
#
# Track frame offsets:
#	150
#	16922
#	37030
#	47960
#	62257
#	76652
#	89055
#	109297
#	123804
#	137607
#
# Disc length: 2063 seconds
#
# Revision: 1
# Processed by: cddbd v1.5.1PL0 Copyright (c) Steve Scherf et al.
# Submitted via: audiograbber 1.83.01
#
DISCID=7b080d0a
DTITLE=Melanie AYERS - All This Time
DYEAR=1900
DGENRE=Country
TTITLE0=Between a rock and a heartache
TTITLE1=All this time
TTITLE2=What goes around
TTITLE3=It just don't hurt anymore
TTITLE4=Far cry form tears
TTITLE5=Crazy little thing called love
TTITLE6=Be love
TTITLE7=For every man like you
TTITLE8=I've been mistreated
TTITLE9=If I had it all to do again
EXTD=
EXTT0=
EXTT1=
EXTT2=
EXTT3=
EXTT4=
EXTT5=
EXTT6=
EXTT7=
EXTT8=
EXTT9=
PLAYORDER=
